# xmcd
#
# Track frame offsets: 
#        150
#        13540
#        25097
#        37512
#        50225
#        63355
#        76535
#        89542
#        102277
#        115157
#        126427
#        137855
#        149612
#        162702
#        172895
#        187890
#        203447
#        216475
#        229092
#        240657
#        253975
#        265940
#        291812
#
# Disc length: 4039 seconds
#
# Revision: 1
# Processed by: cddbd v1.5.2PL0 Copyright (c) Steve Scherf et al.
# Submitted via: ExactAudioCopy v1.3
#
DISCID=490fc517
DTITLE=Elton Britt - The RCA Years
DYEAR=1997
DGENRE=Country
TTITLE0=Patent Leather Boots
TTITLE1=They're Burning Down the House (I Was Brung Up In)
TTITLE2=There's a Star Spangled Banner Waving Somewhere
TTITLE3=Someday (You'll Want Me to Want You)
TTITLE4=I'm a Convict With Old Glory In My Heart
TTITLE5=Blueberry Lane
TTITLE6=Blue Texas Moonlight
TTITLE7=Wave to Me, My Lady
TTITLE8=Detour
TTITLE9=Rogue River Valley
TTITLE10=Gotta Get Together With My Gal
TTITLE11=Chime Bells
TTITLE12=Maybe I'll Cry Over You
TTITLE13=Candy Kisses
TTITLE14=In a Swiss Chalet
TTITLE15=Beyond the Sunset
TTITLE16=Quicksilver
TTITLE17=The Yodel Blues
TTITLE18=Mockin Bird Hill
TTITLE19=Cannonball Yodel
TTITLE20=The Skater's Yodel
TTITLE21=The Jommie Rodgers Blues
TTITLE22=The Bitter Taste
EXTD=
EXTT0=
EXTT1=
EXTT2=
EXTT3=
EXTT4=
EXTT5=
EXTT6=
EXTT7=
EXTT8=
EXTT9=
EXTT10=
EXTT11=
EXTT12=
EXTT13=
EXTT14=
EXTT15=
EXTT16=
EXTT17=
EXTT18=
EXTT19=
EXTT20=
EXTT21=
EXTT22=
PLAYORDER=
